HIERARCHY
ROOT ui
{
	 OFFSET 0 0 0
	 CHANNELS 3 XPosition YPosition Z Position
	 EndSite
	 {
	 OFFSET 0 -1 0
	 }
}
ROOT li
{
	 OFFSET 0 0 0
	 CHANNELS 3 XPosition YPosition Z Position
	 EndSite
	 {
	 OFFSET 0 -1 0
	 }
}
ROOT ul
{
	 OFFSET 0 0 0
	 CHANNELS 3 XPosition YPosition Z Position
	 EndSite
	 {
	 OFFSET 0 -1 0
	 }
}
ROOT ll
{
	 OFFSET 0 0 0
	 CHANNELS 3 XPosition YPosition Z Position
	 EndSite
	 {
	 OFFSET 0 -1 0
	 }
}
ROOT tt
{
	 OFFSET 0 0 0
	 CHANNELS 3 XPosition YPosition Z Position
	 EndSite
	 {
	 OFFSET 0 -1 0
	 }
}
ROOT tb
{
	 OFFSET 0 0 0
	 CHANNELS 3 XPosition YPosition Z Position
	 EndSite
	 {
	 OFFSET 0 -1 0
	 }
}
ROOT td
{
	 OFFSET 0 0 0
	 CHANNELS 3 XPosition YPosition Z Position
	 EndSite
	 {
	 OFFSET 0 -1 0
	 }
}
ROOT v
{
	 OFFSET 0 0 0
	 CHANNELS 3 XPosition YPosition Z Position
	 EndSite
	 {
	 OFFSET 0 -1 0
	 }
}
ROOT bn
{
	 OFFSET 0 0 0
	 CHANNELS 3 XPosition YPosition Z Position
	 EndSite
	 {
	 OFFSET 0 -1 0
	 }
}
MOTION
Frames: 21
Frame Time: 0.002
0.001024124026298523	5.388069748878479E-4	0		0.473953857421875	-2.3903955078125	0		-0.9535260009765625	-0.03884418487548828	0		-0.7463609008789063	-2.244529541015625	0		1.6183580322265625	-0.7212028198242187	0		3.375843505859375	-0.44557659912109376	0		4.809966796875	-0.3620282592773437	0		5.65322265625	0.14674430847167969	0		-0.01510051727294922	5.9871787109375	0		
0.018975711822509764	-0.006407773017883301	0		0.5009918823242188	-2.392446533203125	0		-1.04640771484375	-0.03145221519470215	0		-0.837206298828125	-2.23615966796875	0		1.61246533203125	-0.715840576171875	0		3.3591552734375	-0.42306253051757814	0		4.82000830078125	-0.3618251953125	0		5.66225830078125	0.14696881103515624	0		-0.017103809356689453	5.989474609375	0		
0.014102044105529786	-0.0010738699436187743	0		0.49602264404296875	-2.397106689453125	0		-0.969457275390625	-0.04112527084350586	0		-0.7642073364257812	-2.243781982421875	0		1.6085020751953125	-0.7185009155273437	0		3.356006591796875	-0.44071493530273437	0		4.81010205078125	-0.3593781127929688	0		5.6372265625	0.13960806274414062	0		-0.018103721618652344	5.989759765625	0		
-0.013795531272888184	-4.623689949512482E-4	0		0.467186767578125	-2.393478271484375	0		-1.046338623046875	-0.03892929840087891	0		-0.80305615234375	-2.241045166015625	0		1.604561767578125	-0.7221636962890625	0		3.361026123046875	-0.4474683837890625	0		4.80920654296875	-0.35904391479492187	0		5.63632568359375	0.1399509582519531	0		-0.035198726654052735	5.97923828125	0		
0.016283395767211915	-0.005559339046478272	0		0.5032164001464844	-2.404642822265625	0		-0.9671658935546875	-0.036631587982177735	0		-0.756004638671875	-2.25035595703125	0		1.6097952880859374	-0.714942138671875	0		3.3650751953125	-0.4552159729003906	0		4.80225537109375	-0.36664361572265625	0		5.6305634765625	0.14834622192382813	0		-0.019984386444091798	5.99032177734375	0		
-0.012428727149963379	0.0030515151023864746	0		0.4436744384765625	-2.383652587890625	0		-1.0399229736328126	-0.03149628448486328	0		-0.8385948486328125	-2.233098388671875	0		1.60899072265625	-0.7146552124023438	0		3.348548095703125	-0.43172039794921874	0		4.80552001953125	-0.36037579345703125	0		5.6346416015625	0.1396107635498047	0		-0.020851545333862305	5.99059326171875	0		
0.010774115562438964	2.3941999301314355E-5	0		0.49684713745117187	-2.391039306640625	0		-0.9687354736328125	-0.036114032745361326	0		-0.7654249267578125	-2.240738525390625	0		1.60823779296875	-0.7143783569335938	0		3.3675732421875	-0.4496695556640625	0		4.79987353515625	-0.3510115661621094	0		5.62899072265625	0.14898211669921874	0		-0.02166205406188965	5.9908564453125	0		
-0.01298646068572998	-0.004444790840148926	0		0.46414205932617186	-2.3923955078125	0		-1.0454193115234376	-0.033949230194091795	0		-0.76813330078125	-2.242467529296875	0		1.6014573974609374	-0.7210403442382812	0		3.376958984375	-0.4425125732421875	0		4.80608935546875	-0.35780615234375	0		5.6331904296875	0.14121823120117188	0		-0.02241026306152344	5.9911083984375	0		
0.035418830871582034	-7.977889776229858E-4	0		0.4914805297851563	-2.39549072265625	0		-0.9741243286132812	-0.03958688735961914	0		-0.771781494140625	-2.2441962890625	0		1.60082275390625	-0.7207891845703125	0		3.351360595703125	-0.4389470520019531	0		4.8054521484375	-0.35753311157226564	0		5.62844140625	0.13254598999023437	0		-0.039222667694091794	5.98054296875	0		
-0.014199670791625976	-0.00397785210609436	0		0.44388800048828125	-2.3976923828125	0		-1.046632080078125	-0.033495391845703125	0		-0.7854378662109375	-2.251816162109375	0		1.6033013916015626	-0.7165894775390625	0		3.356704345703125	-0.4457725830078125	0		4.7987841796875	-0.36520492553710937	0		5.63196337890625	0.14075689697265625	0		-0.023711645126342773	5.99057568359375	0		
0.04637372589111328	0.0024973089694976807	0		0.47745083618164064	-2.392888427734375	0		-0.961169189453125	-0.0363267822265625	0		-0.8198466186523438	-2.2441962890625	0		1.60888232421875	-0.709441650390625	0		3.368235107421875	-0.44268844604492186	0		4.81132666015625	-0.3611259460449219	0		5.6363466796875	0.1319375762939453	0		-0.022271863937377928	5.9887646484375	0		
-0.016051729202270507	0.004445600986480713	0		0.4381175537109375	-2.384216796875	0		-1.0475806884765626	-0.03309245681762695	0		-0.768223388671875	-2.239629150390625	0		1.6053948974609376	-0.7131998901367187	0		3.353904541015625	-0.4333078918457031	0		4.8080068359375	-0.350872802734375	0		5.63101318359375	0.14121815490722656	0		-0.024712799072265625	5.9909873046875	0		
0.011466812133789063	-0.0037076730728149414	0		0.4896170654296875	-2.39465869140625	0		-0.9760289306640625	-0.038780475616455076	0		-0.8085967407226563	-2.2389638671875	0		1.5989300537109374	-0.7199378051757812	0		3.339379150390625	-0.44494378662109374	0		4.80355322265625	-0.356625732421875	0		5.62653369140625	0.13346774291992186	0		-0.04024460983276367	5.980353515625	0		
-0.015861727714538573	-0.0032123000621795653	0		0.46132940673828127	-2.391150390625	0		-0.976359375	-0.038613121032714845	0		-0.773973876953125	-2.243218505859375	0		1.598600830078125	-0.7197655029296876	0		3.35504833984375	-0.44496142578125	0		4.80322314453125	-0.35644735717773435	0		5.626203125	0.133647705078125	0		-0.040586544036865235	5.98052294921875	0		
0.006911732196807861	0.0016630359888076783	0		0.4630706176757812	-2.389020751953125	0		-1.0485789794921876	-0.032591373443603515	0		-0.8451429443359375	-2.233208984375	0		1.601364501953125	-0.7156469116210937	0		3.35966650390625	-0.45286428833007814	0		4.8009140625	-0.35826461791992187	0		5.6208212890625	0.12586796569824218	0		-0.02574618148803711	5.991494140625	0		
-0.016393102645874024	-0.0029210929870605467	0		0.47578805541992186	-2.392039794921875	0		-0.9728427124023438	-0.034371799468994144	0		-0.75953955078125	-2.246109375	0		1.604154541015625	-0.7125451049804687	0		3.343699462890625	-0.4295339660644531	0		4.80066845703125	-0.3581253967285156	0		5.62465966796875	0.13295860290527345	0		-0.025994159698486327	5.99163232421875	0		
0.01039283561706543	-0.003124998092651367	0		0.49058642578125	-2.391098876953125	0		-0.9730548095703125	-0.03424939346313476	0		-0.8076278686523437	-2.235407958984375	0		1.6039422607421876	-0.7124232788085938	0		3.35920849609375	-0.45260406494140626	0		4.80655224609375	-0.35007730102539064	0		5.61547216796875	0.13518812561035157	0		-0.02620494270324707	5.99175439453125	0		
-0.020726642608642577	0.0023563640117645265	0		0.48836685180664063	-2.393967529296875	0		-0.9772849731445312	-0.03809293365478516	0		-0.771874267578125	-2.240734619140625	0		1.5976756591796875	-0.719243896484375	0		3.35718310546875	-0.4394754638671875	0		4.7953828125	-0.3488399353027344	0		5.6152900390625	0.13529225158691408	0		-0.02638368034362793	5.99186181640625	0		
0.010055548667907714	-0.00292430305480957	0		0.4602481689453125	-2.390536376953125	0		-0.977440185546875	-0.037998794555664066	0		-0.8130281372070313	-2.2401455078125	0		1.5944840087890626	-0.722115234375	0		3.353967529296875	-0.4443479919433594	0		4.80704541015625	-0.36389401245117187	0		5.61513525390625	0.1353814239501953	0		-0.026522241592407226	5.992955078125	0		
-0.017072458267211914	-0.002517417907714844	0		0.46901898193359376	-2.398564208984375	0		-1.0435653076171876	-0.03712000274658203	0		-0.8002212524414063	-2.245220703125	0		1.6004375	-0.7151087646484375	0		3.332935302734375	-0.436016845703125	0		4.79998828125	-0.35773297119140623	0		5.62398046875	0.13334909057617186	0		-0.026659507751464844	5.99203564453125	0		
0.017903940200805664	0.004128829002380371	0		0.44702197265625	-2.389229736328125	0		-1.039635009765625	-0.03409822082519531	0		-0.794244384765625	-2.2382236328125	0		1.617269775390625	-0.720245361328125	0		3.3657666015625	-0.44134796142578125	0		4.79988232421875	-0.35766690063476564	0		5.623875	0.1334145965576172	0		-0.023797243118286134	5.9890693359375	0		
